<svg xmlns="http://www.w3.org/2000/svg" xmlns:xlink="http://www.w3.org/1999/xlink" width="413.679" height="512" viewBox="0 0 413.679 512"><defs><linearGradient id="a" x1="0.5" x2="0.5" y2="1" gradientUnits="objectBoundingBox"><stop offset="0" stop-color="#fffbfb" stop-opacity="0.38"/><stop offset="1" stop-color="#f5c5c5"/></linearGradient></defs><g transform="translate(-49.16)"><path d="M363.553,376.189,462.666,6.294A5,5,0,0,0,457.837,0H54.163a5,5,0,0,0-4.83,6.294l99.113,369.895a5,5,0,0,0,4.83,3.706H358.724A5,5,0,0,0,363.553,376.189Z" fill="url(#a)"/><path d="M363.969,481.152H148.031V444.738a15,15,0,0,1,15-15H348.969a15,15,0,0,1,15,15Z" fill="#548eb5"/><path d="M363.97,461.15v20H148.03V444.74a15,15,0,0,1,15-15h35v24.41a7,7,0,0,0,7,7Z" fill="#447d99"/><path d="M256,208.215V106.421L178,50.9V154.611a5,5,0,0,0,2.268,4.187Z" fill="#c20000"/><path d="M256,208.215V106.421L334,50.9V154.611a5,5,0,0,1-2.268,4.187Z" fill="#dc0d16"/><path d="M256,106.421,178,50.9,253.268,1.783a5,5,0,0,1,5.465,0L334,50.9Z" fill="#f92d36"/><path d="M256,314.62a7.712,7.712,0,0,1-7.712-7.712V255.959a7.712,7.712,0,1,1,15.424,0v50.949A7.712,7.712,0,0,1,256,314.62Z" fill="#eefaff"/><path d="M256,409.207a7.712,7.712,0,0,1-7.712-7.712v-50.95a7.712,7.712,0,1,1,15.424,0v50.95A7.712,7.712,0,0,1,256,409.207Z" fill="#eefaff"/><path d="M191.184,294.8a7.714,7.714,0,0,1-7.444-5.718l-13.186-49.214a7.712,7.712,0,0,1,14.9-3.992l13.186,49.214a7.72,7.72,0,0,1-7.455,9.71Z" fill="#eefaff"/><path d="M215.665,386.163a7.714,7.714,0,0,1-7.444-5.718l-13.186-49.213a7.712,7.712,0,0,1,14.9-3.992l13.186,49.213a7.72,7.72,0,0,1-7.455,9.71Z" fill="#eefaff"/><path d="M319.484,294.8a7.72,7.72,0,0,1-7.455-9.71l13.186-49.214a7.712,7.712,0,0,1,14.9,3.992l-13.186,49.214a7.715,7.715,0,0,1-7.444,5.718Z" fill="#eefaff"/><path d="M295,386.163a7.719,7.719,0,0,1-7.454-9.71l13.187-49.213a7.712,7.712,0,0,1,14.9,3.992l-13.187,49.213A7.718,7.718,0,0,1,295,386.163Z" fill="#eefaff"/><path d="M410.241,512H101.759V477.869a7,7,0,0,1,7-7H403.242a7,7,0,0,1,7,7V512Z" fill="#548eb5"/><path d="M158.76,470.87a7,7,0,0,0-7,7V512h-50V477.87a7,7,0,0,1,7-7Z" fill="#447d99"/></g></svg>